<mxfile host="app.diagrams.net" modified="2023-07-14T10:24:24.882Z" agent="Mozilla/5.0 (Windows NT 10.0; Win64; x64) AppleWebKit/537.36 (KHTML, like Gecko) Chrome/114.0.0.0 Safari/537.36 Edg/114.0.1823.79" version="21.6.2" etag="TxZnGdMin8yO7p0qLg96" type="github">
  <diagram name="Page-1" id="9iOTBrGnUB7ZCZRaN03Y">
    <mxGraphModel>
      <root>
        <mxCell id="0" />
        <mxCell id="1" parent="0" />
      </root>
    </mxGraphModel>
  </diagram>
</mxfile>
